# xmcd
#
# Track frame offsets: 
#        150
#        16056
#        30035
#        46785
#        62666
#        79456
#        96969
#        119845
#        136787
#        171549
#        186834
#        204899
#        219649
#        251053
#        264552
#        299485
#        317124
#        329795
#
# Disc length: 4626 seconds
#
# Revision: 0
# Processed by: cddbd v1.5.2PL0 Copyright (c) Steve Scherf et al.
# Submitted via: ExactAudioCopy v1.0b3
#
DISCID=10121012
DTITLE=Various Artist - Trance The Vocal Session Vol. 12 - CD 1
DYEAR=1900
DGENRE=
TTITLE0=DJ Klubbingman Feat. Trixi Delgado - Ride On A White Train (Li
TTITLE0=ke A Hurricane) (Original Club Radio Edit)
TTITLE1=Ron Van Den Beuken - Find The Way (Radio Edit)
TTITLE2=Ian Van Dahl - Just A Girl (Radio Edit)
TTITLE3=DJ Klubbingman Feat. Trixi Delgado - Ride On A White Train (Li
TTITLE3=ke A Hurricane) (Original Club Radio Edit)
TTITLE4=Ole Van Dansk - You Can Run
TTITLE5=Beam Vs. Michelle Aragon - Silent Tears (DJ Shogs 2 Faces Edit
TTITLE5=)
TTITLE6=DHT Feat. Edmée - Someone (Furious F Xtd Mix)
TTITLE7=Everest - Forever (Radio Edit)
TTITLE8=DJ Shah Meets Jan Johnston - Beautiful (Original Mix)
TTITLE9=Gavin and Nox Feat. Sinatic - In Your Eyes (Radio Version)
TTITLE10=Stella - Day By Day (Radio Edit)
TTITLE11=Lara - Fate (Open Your Arms) (Age-M Radio Mix)
TTITLE12=Mads Arp Feat. Julie Harrington - Slow It Down (Mathilda Mix)
TTITLE13=Michael Splint Feat. Sasja - You Set Me Free (Radio Mix)
TTITLE14=Leon Bolier and Elsa Hill - No Need To Come Back (Original Mix)
TTITLE15=Total Structure Feat. Lizzy - Always Tomorrow (Aerodynamic Ra
TTITLE15=dio Mix)
TTITLE16=The Real Booty Babes - It's A Fine Day (Radio Edit)
TTITLE17=Diva DJ's Vs. Nicki French - Total Eclipse Of The Heart 2006 
TTITLE17=(Spit and Polish Radio Mix)
EXTD=
EXTT0=
EXTT1=
EXTT2=
EXTT3=
EXTT4=
EXTT5=
EXTT6=
EXTT7=
EXTT8=
EXTT9=
EXTT10=
EXTT11=
EXTT12=
EXTT13=
EXTT14=
EXTT15=
EXTT16=
EXTT17=
PLAYORDER=
